<svg xmlns="http://www.w3.org/2000/svg" viewBox="0 0 500 500" width="500" height="500"><circle cx="250" cy="250" r="130" fill="none" stroke="#9bbd12" stroke-width="12"/><circle cx="250" cy="250" r="210" fill="none" stroke="#9bbd12" stroke-width="6"/><path d="M 460.00 250.00 A 170 170 0 0 1 145.00 431.87" fill="none" stroke="#9bbd12" stroke-width="10" stroke-linecap="round"/><path d="M 431.87 355.00 A 170 170 0 0 1 68.13 355.00" fill="none" stroke="#9bbd12" stroke-width="10" stroke-linecap="round"/><path d="M 355.00 431.87 A 170 170 0 0 1 40.00 250.00" fill="none" stroke="#9bbd12" stroke-width="10" stroke-linecap="round"/><path d="M 250.00 460.00 A 170 170 0 0 1 68.13 145.00" fill="none" stroke="#9bbd12" stroke-width="10" stroke-linecap="round"/><path d="M 145.00 431.87 A 170 170 0 0 1 145.00 68.13" fill="none" stroke="#9bbd12" stroke-width="10" stroke-linecap="round"/><path d="M 68.13 355.00 A 170 170 0 0 1 250.00 40.00" fill="none" stroke="#9bbd12" stroke-width="10" stroke-linecap="round"/><path d="M 40.00 250.00 A 170 170 0 0 1 355.00 68.13" fill="none" stroke="#9bbd12" stroke-width="10" stroke-linecap="round"/><path d="M 68.13 145.00 A 170 170 0 0 1 431.87 145.00" fill="none" stroke="#9bbd12" stroke-width="10" stroke-linecap="round"/><path d="M 145.00 68.13 A 170 170 0 0 1 460.00 250.00" fill="none" stroke="#9bbd12" stroke-width="10" stroke-linecap="round"/><path d="M 250.00 40.00 A 170 170 0 0 1 431.87 355.00" fill="none" stroke="#9bbd12" stroke-width="10" stroke-linecap="round"/><path d="M 355.00 68.13 A 170 170 0 0 1 355.00 431.87" fill="none" stroke="#9bbd12" stroke-width="10" stroke-linecap="round"/><path d="M 431.87 145.00 A 170 170 0 0 1 250.00 460.00" fill="none" stroke="#9bbd12" stroke-width="10" stroke-linecap="round"/><path d="M 460.00 250.00 A 190 190 0 0 1 68.13 355.00" fill="none" stroke="#9bbd12" stroke-width="8" stroke-linecap="round"/><path d="M 431.87 355.00 A 190 190 0 0 1 40.00 250.00" fill="none" stroke="#9bbd12" stroke-width="8" stroke-linecap="round"/><path d="M 355.00 431.87 A 190 190 0 0 1 68.13 145.00" fill="none" stroke="#9bbd12" stroke-width="8" stroke-linecap="round"/><path d="M 250.00 460.00 A 190 190 0 0 1 145.00 68.13" fill="none" stroke="#9bbd12" stroke-width="8" stroke-linecap="round"/><path d="M 145.00 431.87 A 190 190 0 0 1 250.00 40.00" fill="none" stroke="#9bbd12" stroke-width="8" stroke-linecap="round"/><path d="M 68.13 355.00 A 190 190 0 0 1 355.00 68.13" fill="none" stroke="#9bbd12" stroke-width="8" stroke-linecap="round"/><path d="M 40.00 250.00 A 190 190 0 0 1 431.87 145.00" fill="none" stroke="#9bbd12" stroke-width="8" stroke-linecap="round"/><path d="M 68.13 145.00 A 190 190 0 0 1 460.00 250.00" fill="none" stroke="#9bbd12" stroke-width="8" stroke-linecap="round"/><path d="M 145.00 68.13 A 190 190 0 0 1 431.87 355.00" fill="none" stroke="#9bbd12" stroke-width="8" stroke-linecap="round"/><path d="M 250.00 40.00 A 190 190 0 0 1 355.00 431.87" fill="none" stroke="#9bbd12" stroke-width="8" stroke-linecap="round"/><path d="M 355.00 68.13 A 190 190 0 0 1 250.00 460.00" fill="none" stroke="#9bbd12" stroke-width="8" stroke-linecap="round"/><path d="M 431.87 145.00 A 190 190 0 0 1 145.00 431.87" fill="none" stroke="#9bbd12" stroke-width="8" stroke-linecap="round"/><circle cx="460.00" cy="250.00" r="16" fill="#9bbd12" /><circle cx="460.00" cy="250.00" r="9" fill="#ffffff" /><circle cx="431.87" cy="355.00" r="16" fill="#9bbd12" /><circle cx="431.87" cy="355.00" r="9" fill="#ffffff" /><circle cx="355.00" cy="431.87" r="16" fill="#9bbd12" /><circle cx="355.00" cy="431.87" r="9" fill="#ffffff" /><circle cx="250.00" cy="460.00" r="16" fill="#9bbd12" /><circle cx="250.00" cy="460.00" r="9" fill="#ffffff" /><circle cx="145.00" cy="431.87" r="16" fill="#9bbd12" /><circle cx="145.00" cy="431.87" r="9" fill="#ffffff" /><circle cx="68.13" cy="355.00" r="16" fill="#9bbd12" /><circle cx="68.13" cy="355.00" r="9" fill="#ffffff" /><circle cx="40.00" cy="250.00" r="16" fill="#9bbd12" /><circle cx="40.00" cy="250.00" r="9" fill="#ffffff" /><circle cx="68.13" cy="145.00" r="16" fill="#9bbd12" /><circle cx="68.13" cy="145.00" r="9" fill="#ffffff" /><circle cx="145.00" cy="68.13" r="16" fill="#9bbd12" /><circle cx="145.00" cy="68.13" r="9" fill="#ffffff" /><circle cx="250.00" cy="40.00" r="16" fill="#9bbd12" /><circle cx="250.00" cy="40.00" r="9" fill="#ffffff" /><circle cx="355.00" cy="68.13" r="16" fill="#9bbd12" /><circle cx="355.00" cy="68.13" r="9" fill="#ffffff" /><circle cx="431.87" cy="145.00" r="16" fill="#9bbd12" /><circle cx="431.87" cy="145.00" r="9" fill="#ffffff" /><circle cx="390.06" cy="287.53" r="12" fill="#9bbd12" /><circle cx="390.06" cy="287.53" r="6" fill="#ffffff" /><circle cx="352.53" cy="352.53" r="12" fill="#9bbd12" /><circle cx="352.53" cy="352.53" r="6" fill="#ffffff" /><circle cx="287.53" cy="390.06" r="12" fill="#9bbd12" /><circle cx="287.53" cy="390.06" r="6" fill="#ffffff" /><circle cx="212.47" cy="390.06" r="12" fill="#9bbd12" /><circle cx="212.47" cy="390.06" r="6" fill="#ffffff" /><circle cx="147.47" cy="352.53" r="12" fill="#9bbd12" /><circle cx="147.47" cy="352.53" r="6" fill="#ffffff" /><circle cx="109.94" cy="287.53" r="12" fill="#9bbd12" /><circle cx="109.94" cy="287.53" r="6" fill="#ffffff" /><circle cx="109.94" cy="212.47" r="12" fill="#9bbd12" /><circle cx="109.94" cy="212.47" r="6" fill="#ffffff" /><circle cx="147.47" cy="147.47" r="12" fill="#9bbd12" /><circle cx="147.47" cy="147.47" r="6" fill="#ffffff" /><circle cx="212.47" cy="109.94" r="12" fill="#9bbd12" /><circle cx="212.47" cy="109.94" r="6" fill="#ffffff" /><circle cx="287.53" cy="109.94" r="12" fill="#9bbd12" /><circle cx="287.53" cy="109.94" r="6" fill="#ffffff" /><circle cx="352.53" cy="147.47" r="12" fill="#9bbd12" /><circle cx="352.53" cy="147.47" r="6" fill="#ffffff" /><circle cx="390.06" cy="212.47" r="12" fill="#9bbd12" /><circle cx="390.06" cy="212.47" r="6" fill="#ffffff" /></svg>